<?xml version="1.0" encoding="UTF-8"?>
<svg id="Layer_2" data-name="Layer 2" xmlns="http://www.w3.org/2000/svg" viewBox="0 0 1687.42 1923.59">
  <defs>
    <style>
      .cls-1, .cls-2 {
        fill: #fff;
      }

      .cls-3, .cls-4 {
        fill: none;
        stroke: #231f20;
        stroke-linejoin: round;
        stroke-width: 40px;
      }

      .cls-2, .cls-4 {
        fill-rule: evenodd;
      }

      .cls-5 {
        fill: #cb2026;
      }

      .cls-6 {
        fill: #231f20;
      }

      .cls-7 {
        fill: #e63738;
      }
    </style>
  </defs>
  <g id="Layer_6" data-name="Layer 6">
    <g>
      <g>
        <g>
          <g>
            <path class="cls-5" d="M1654.11,837.72c3.11-311.93-184.38-601.08-466.03-732.75-13.11-6.26-27.39-10.08-41.13-15.02,2.34,1.79,4.45,4.1,7.06,5.29,37.86,17.32,74.29,36.09,108.67,60.76,103.27,71.47,198.8,160.58,254.58,274.62,57.91,114.57,94.21,231.2,90.94,360.87-.41,84.2,.3,168.42-.43,252.62-.25,29.59-1.37,59.43-5.5,88.68-8.12,57.47-21.93,113.83-42.56,168.19-108.42,288.47-384.7,485.99-692.88,494.14-81.64,2.9-162.63-11.61-241.47-31.53-109.53-31.21-212.32-90-295.65-167.46-155.29-143.47-250.2-355.35-247.88-567.44,1.78-114.12-6.93-228.48,7.57-342.34,23.16-181.27,117.69-351.5,254.38-471.86,86.91-76.16,190.75-131.36,303.45-157.97,12.92-3.3,25.57-7.68,38.34-11.57-4.15,.21-8.48-.27-12.42,.74-140.41,30.91-269.15,95.96-375.02,193.06C138.66,382.74,38.52,593.01,33.23,808.28c-2.2,107.42-1.49,215.01,2.26,322.38,8.7,182.95,82.95,358.05,206,493.43,372.86,415.13,1046.85,334.6,1313.41-154.94,117.81-207.31,99.79-403.46,99.2-631.43Z"/>
            <path class="cls-5" d="M677.5,1031.94c-.32,2.74-2.04,5.32-3.12,7.97-2.5-1.81-5.2-3.41-7.42-5.52-1.52-1.43-2.03-3.96-3.59-5.3-2.07-1.78-4.72-2.87-7.13-4.26-.64,2.36-1.98,4.77-1.81,7.07,.76,10.26,1.97,20.48,2.96,30.72,.19,1.99,.13,4,.18,6-1.94-1.3-4.82-2.17-5.69-3.98-6.3-13.16-12.04-26.58-18.34-39.74-1.39-2.89-4.31-5.05-6.52-7.54-.93,3.52-3.29,7.39-2.55,10.51,5.53,23.29,11.71,46.43,17.55,69.65,.57,2.27,.28,4.76,.39,7.14-2.43-1.23-5.98-1.81-7.11-3.78-6.84-11.95-14.78-23.65-19.23-36.51-7.43-21.44-12.48-43.7-18.64-65.58-.5-1.76-1.9-3.26-2.89-4.88-.8,1.77-2.3,3.56-2.27,5.32,.27,15.06-.56,30.3,1.56,45.12,4.88,34.05,18.65,65.18,34.37,95.5,1.83,3.54,2.4,7.73,3.56,11.62-3.86-2.93-8.39-5.19-11.82-8.56-34.52-45.76-51.69-97.65-53.54-154.6-.88-27.18,.2-54.42-.35-81.62-.15-7.29-3.01-14.52-4.63-21.78-1.84,7.52-5.17,15.02-5.28,22.57-.57,36.7-1.03,73.44,.01,110.12,.53,18.74,3,37.67,6.85,56.03,10.79,51.41,37.72,94.72,70.36,134.93,1.71,2.11,2.64,4.85,3.93,7.3-2.46-1.01-5.49-1.42-7.27-3.14-10.48-10.1-21.44-19.84-30.82-30.9-86.22-99.39-67.52-203.48-69.31-324.41-.03-5.58-1.78-11.16-2.73-16.74-2.5,5.73-5,11.46-7.47,17.21-1.86,45.07-3.57,90.25-5.28,135.36-5.28,106.02,42.88,208.25,122.69,276.93,2.34,2.08,3.73,5.23,5.56,7.88-3.35-.8-7.23-.77-9.96-2.53-31.91-20.55-57.71-47.67-80.28-77.74-43.26-57.62-63.89-123.94-65.83-194.9-1.81-66.15-4.78-132.69,6.79-198.56,.56-3.2-1.48-6.86-2.31-10.3-1.95,2.67-4.12,5.21-5.78,8.06-12.95,34.48-16.87,71.31-16.91,107.55-.48,51.84,1.07,103.85,5.06,155.53,3.53,45.76,18.56,89.32,39.29,130.09,21.22,41.73,51.92,76.84,84.95,109.82,2.53,2.53,4.06,6.06,6.06,9.12-3.31-1.22-7.39-1.59-9.79-3.79-26.27-24.01-54.47-46.41-77.63-73.16-51.71-66.43-79.32-151.79-77.27-236.34,1.14-39.7,.77-79.47,.13-119.2-.85-53.49,8.68-105.11,25.37-155.69,2.13-6.46,2.28-13.57,3.34-20.37-4.3,5.58-9.48,10.7-12.76,16.83-25.46,47.59-37.25,99.72-38.18,152.49-1.31,74.32-6.37,148.96,6.31,223.19,14.36,84.11,51.09,157.06,109.26,218.19,28.24,29.68,62.66,53.45,94.2,80,2.96,2.49,5.26,5.76,7.87,8.66-3.88-1.15-8.23-1.53-11.58-3.57-20.9-12.73-42.28-24.84-62.18-39.01-94.77-70.42-161.33-186.96-170.92-304.84-2.94-42.45-3.67-85.07-4.79-127.63-.32-12.18,2.16-24.43,2.05-36.63-.17-19.54-3.98-39.38-1.69-58.55,4.15-34.79,9.11-69.9,18.49-103.54,9.3-33.38,24.54-65.1,36.97-97.62,1.28-3.34,1.16-7.21,1.69-10.83-2.83,2.23-6.65,3.88-8.32,6.78-12.46,21.57-25.51,42.88-36.45,65.21-61.77,124.48-36.5,265.67-36.39,399.2,1.44,62.29,24.46,118.19,52.63,172.09,26.56,50.81,63.24,94.19,104.61,133.71,3.85,3.67,6.07,9.04,9.05,13.63-5.28-2.55-11.41-4.1-15.7-7.8-42.22-36.44-80.35-76.47-109.37-124.6-54.96-87.69-81.12-190.3-77.55-293.59,2.08-73.63,.85-147.48,6.51-220.82,2.89-37.4,13.37-75.74,28.21-110.31,22.33-51.89,54.83-99.36,80.82-149.72-7.12,4.9-15.81,8.5-21.11,14.91-77.18,91.24-126.73,208.4-129.95,328.34-1.6,76.29,1.59,152.67,1.71,229.01,7.65,193.39,132.21,375.76,305.47,460.08,45.5,21.88,92.13,40.5,141.61,51.34,2.59,.57,4.92,2.3,7.37,3.49-2.64,.69-5.48,2.39-7.89,1.91-19.32-3.83-38.82-7.12-57.76-12.37-142.39-38.29-258.82-129.71-337.28-253.48-35.57-52.29-59.17-110.72-73.87-172.05-11.98-50.01-18.57-100.88-16.73-152.88,1.88-53.3,1.46-106.73,.21-160.06-1.47-63.23,3.98-125.51,24.21-185.53,11.62-34.47,25.43-68.48,41.52-101.09,15.32-31.06,34.93-60,52.51-89.95,1.41-2.41,1.79-5.42,2.65-8.15-3.05,.82-6.26,1.3-9.11,2.59-42.49,46.72-76.04,101.18-100.69,159.4-32.5,79.11-49.26,161.59-49.67,247.23-.13,27.01-.33,54.03,.02,81.04,.44,81.99-.11,164.63,17.65,245.1,12.54,59.91,34.86,115.88,68.55,167.94,38.09,58.86,79.21,114.39,132.57,160.46,131.48,114.75,297.9,170.58,471.79,151.87,84.09-9.01,170.01-29.95,242.52-74.99,39.55-24.87,79.05-50.65,114.76-80.57,88.86-76.02,154.23-181.58,185.36-294.24,9.82-38.47,16.55-78.08,20.56-117.59,5.24-61.97,6.91-124.65,3.36-186.82-1.04-37.82-.63-75.72-2.98-113.45-4-64.32-19.88-125.91-45.57-185.12-17.73-40.87-38.84-79.64-65.77-115.14-2.03-2.67-5.58-4.17-8.43-6.22,.78,3.11,1.06,6.47,2.42,9.31,13.21,27.63,27,54.99,39.85,82.78,49.22,102.91,51.73,216.95,49.09,328.71,.79,.03,1.57,.07,2.35,.1-2.5,54.6-3.9,109.28-7.79,163.78-14.39,162.12-106.87,310.58-237.25,405.31-73.14,54.52-155.09,90.08-245.88,103.65-2.41,.36-5.08-1.06-7.63-1.65,2.12-1.01,4.16-2.29,6.38-2.99,28.65-9.06,57.75-16.92,85.92-27.27,115.99-43.77,220.13-127.11,281.56-235.4,61.41-113.21,86.08-196.83,81.06-326.58-1.06-49.65,.48-99.35-.46-149-3.39-70.96-19.98-141.3-48.91-206.31-20.29-44.67-46.4-85.38-80.14-121.08-2.22-2.35-5.42-3.78-8.17-5.63,.71,3.42,1.26,6.88,2.2,10.23,18.99,35,40.12,69.24,57.22,105.23,30.32,63.73,44.62,131.48,44.47,202.19-.14,64.35,.09,128.71-.23,193.06-.07,14.58-.88,29.26-2.83,43.7-20.17,141.16-96.88,275.43-215.88,355.6-2.05,1.49-5.33,1.32-8.03,1.91,1.29-2.46,2.05-5.47,3.96-7.27,117.33-96.57,191.6-238.94,191.66-392.05,.71-41.02,.08-82.06,.2-123.09,1.38-101.85-22.93-206.2-83.99-289.19-3.33-4.58-8.13-8.1-12.25-12.11,1.51,5.76,1.95,12.09,4.68,17.19,43,80.25,63.7,165.56,60.69,256.79-1.31,39.69-1.03,79.48-.08,119.19,2.25,129.43-54.5,255.18-151.29,340.63-11.14,9.99-23.95,18.14-36.15,26.92-1.4,1.01-3.83,.59-5.78,.83,.62-1.83,.71-4.24,1.96-5.4,5.67-5.25,11.98-9.82,17.48-15.23,86.68-81.36,143.13-194.29,146.65-313.92,1.93-37.6-1.88-75.47-1.28-113.18,.72-44.8-1.88-88.91-12.82-132.63-11.66-46.64-31.88-88.89-59.89-127.65-2.04-2.83-5.53-4.61-8.35-6.88,.32,3.96-.33,8.33,1.16,11.79,60.17,117.92,55.65,189.27,51.19,316.16,3.15,100.52-20.85,191.81-87.53,268.79-18.81,21.98-42.26,39.99-63.75,59.65-1.25,1.14-3.63,1.04-5.48,1.52,.59-1.83,.71-4.07,1.86-5.42,49.16-53.63,96.91-106.9,112.11-180.56,7.29-33.39,14.06-67.32,16.11-101.31,2.75-45.62,2.34-91.6,.12-137.28-1.32-27.14-8.51-54.02-13.62-80.91-.66-3.48-4.66-6.34-7.11-9.48-.39,4.77-2.37,10.11-1.36,14.71,2.36,34.1,5.64,68.17,6.73,102.3,.78,24.49-2.74,49.11-1.94,73.59,3.04,101.91-43.77,216.44-130.88,272.63,.8-2.15,1.14-4.67,2.49-6.37,62.17-70.31,100.84-144.45,102.08-240,.67-35.4,1.47-70.9-.3-106.22-1.24-24.69-6.48-49.2-10.6-73.68-.68-4.02-4.8-7.46-7.33-11.17-.75,4.41-2.32,8.85-2.13,13.21,1.68,47.94,6.12,95.81,4.89,143.81-.99,75.92-23.31,155.13-79.07,209.25-1.97,1.82-4.85,2.66-7.3,3.95,.61-2.71,.61-5.76,1.92-8.06,8.3-14.56,17.07-28.84,25.36-43.41,43.38-71.57,32.35-156.09,33.23-235.91,.95-12.71-4.55-24.27-8.21-36.14-1.57,8.64-4.17,17.24-4.55,25.93-2.12,47.7-1.39,95.66-6.23,143.06-3.61,35.43-20.63,67.28-42.2,95.97-1.5,1.99-4.67,2.72-7.07,4.04,.39-2.35,.5-4.79,1.26-7.01,20.61-39.37,31-82.17,32.88-126.2,1.23-25.7-1.12-51.6-2.27-77.39-.26-5.96-2.18-11.84-3.33-17.76-1.44,6.06-4.19,12.13-4.12,18.17,.65,50.57,1.84,101.14-24.96,146.99-2.85,4.87-6.44,9.3-9.69,13.94,.55-5.26,.91-10.55,1.7-15.77,3.06-20.3,6.42-40.56,9.21-60.9,.39-2.86-1.75-6.07-2.72-9.12-2.19,2.64-5.27,4.96-6.4,8-2.7,7.23-3.79,15.1-6.85,22.14-2.26,5.2-6.6,9.48-10.02,14.18-.78-4.85-1.65-9.69-2.28-14.56,.16-7.12-1.03-14.22-2-21.3-5.89,5.51-11.63,11.18-18.05,16.08-1.11-2.52-3.02-5-3.16-7.57-.44-8.13-3.19-11.44-11.35-7.19-1.74,.91-4.34,1.62-5.99,.98-18.28-7.06-36.67-13.91-54.59-21.79-23.53-10.35-26.08-10.76-43.67,7.87-33.04,35-72.14,36.78-107.64,3.53-8.77-8.21-18.36-16.27-32.08-9.73-21.17,10.1-42.38,20.13-63.67,29.97-2.04,.94-5.49,1.35-7.12,.26-10.47-7-10.28,.42-11.1,7.52Z"/>
            <path class="cls-5" d="M1558.62,831.55c-2.97-167.98-69.69-335.83-186.54-457.24-3.51-3.53-8.83-5.26-13.31-7.83,1.97,4.38,3.41,9.1,5.98,13.09,25.13,39.02,52.72,76.65,75.17,117.15,81.78,139,80.45,304.99,77.31,461.39-.35,42.66-.39,85.38-2.86,127.93-19.77,261.14-211.36,497.86-459.99,577.49-161.51,52.3-344.04,42.85-497.22-30.93-68.15-33.05-132.1-72.69-182.62-130.8-16.37-18.83-33.99-36.57-50.12-55.59-48.98-57.74-84.11-123.58-110.75-194.04-47.42-120.01-41.69-249.27-41.4-375.84-.34-52.1-1.17-104.27,8.05-155.77,6.86-38.32,12.68-77.22,24.3-114.17,33.2-95.16,81.84-186.35,152.62-259.09,6.2-6.55,12.09-13.43,17.66-20.52,1.96-2.49,2.54-6.05,3.75-9.12-3.06,.75-6.74,.67-9.06,2.4-9.62,7.2-19.47,14.29-28.09,22.61-115.97,117.87-196.33,275.73-208.07,441.85-3.15,51.78-4.71,103.64-4.96,155.52,1.24,52.86,2.7,105.75,2.26,158.66,.04,51.49,9.85,101.55,22.62,151.06,42.91,162.77,139.8,299.59,276.21,397.32,116.37,88.25,262.8,132.84,408.12,135.26,255.31,3.97,508.79-141.68,631.14-366.38,70.39-121.3,93.28-258.02,92.48-396.85,.21-18.57,.05-37.14,.06-55.72-.86,0-1.71,0-2.57,0,.02-43.95,.66-87.91-.18-131.84Z"/>
          </g>
          <path class="cls-7" d="M685.57,44.96c-12.77,3.88-25.42,8.26-38.34,11.57-112.7,26.61-216.54,81.81-303.45,157.97-136.69,120.35-231.22,290.58-254.38,471.86-14.5,113.86-5.79,228.22-7.57,342.34-2.33,212.09,92.59,423.97,247.88,567.44,83.33,77.45,186.13,136.25,295.65,167.46,78.85,19.93,159.84,34.43,241.47,31.53,6.22-.16,12.43-.41,18.62-.73,63.28-3.7,125.81-15.06,186.09-33.37,221-69.11,404.53-237.51,488.16-460.04,20.64-54.35,34.44-110.72,42.56-168.19,4.13-29.24,5.25-59.09,5.5-88.68,.73-84.2,.02-168.41,.43-252.62,3.27-129.67-33.02-246.3-90.93-360.87-55.78-114.04-151.31-203.16-254.58-274.62-34.38-24.66-70.81-43.43-108.67-60.76-2.61-1.2-4.72-3.5-7.06-5.29,6.41,2.3,12.94,4.37,19.41,6.55-6.69-3.08-13.43-6.08-20.21-8.97-63.39-18.2-124.67-43.12-190.69-50.45-32.07-4.76-64.37-6.18-96.68-3.81-59.11-3.3-117.9-.32-175.92,11.7-.1,.02-.2,.04-.3,.06,1.01,0,2.01-.01,3-.06Zm686.51,329.35c116.85,121.41,183.56,289.26,186.54,457.24,.84,43.93,.2,87.89,.18,131.84,.86,0,1.71,0,2.57,0,0,18.57,.16,37.15-.06,55.72,.8,138.83-22.09,275.54-92.48,396.85-122.35,224.7-375.83,370.35-631.14,366.38-145.31-2.42-291.75-47-408.12-135.26-136.41-97.72-233.31-234.55-276.21-397.32-12.77-49.51-22.58-99.57-22.62-151.06,.44-52.91-1.02-105.8-2.26-158.66,.24-51.88,1.81-103.74,4.96-155.52,11.74-166.11,92.09-323.97,208.07-441.85,8.62-8.32,18.47-15.41,28.09-22.61,2.32-1.74,6-1.65,9.06-2.4-1.21,3.07-1.8,6.63-3.75,9.12-5.57,7.09-11.46,13.97-17.66,20.52-70.77,72.74-119.42,163.94-152.62,259.09-11.62,36.96-17.44,75.86-24.3,114.17-9.23,51.5-8.39,103.67-8.05,155.77-.29,126.57-6.02,255.83,41.4,375.84,26.64,70.46,61.78,136.3,110.75,194.04,16.13,19.02,33.75,36.77,50.12,55.59,50.52,58.11,114.46,97.75,182.62,130.8,153.18,73.78,335.71,83.23,497.22,30.93,248.63-79.63,440.22-316.35,459.99-577.49,2.47-42.56,2.5-85.28,2.86-127.93,3.15-156.41,4.47-322.4-77.31-461.39-22.45-40.49-50.04-78.13-75.17-117.15-2.57-3.99-4.01-8.71-5.98-13.09,4.48,2.57,9.8,4.3,13.31,7.83Zm-676.37,649.86c21.29-9.84,42.5-19.87,63.67-29.97,13.71-6.54,23.31,1.52,32.08,9.73,35.5,33.26,74.6,31.47,107.64-3.52,17.59-18.63,20.14-18.23,43.67-7.87,17.92,7.89,36.31,14.73,54.59,21.79,1.65,.64,4.26-.08,5.99-.98,8.16-4.26,10.91-.94,11.35,7.19,.14,2.57,2.06,5.05,3.16,7.57,6.42-4.9,12.16-10.58,18.05-16.08,.97,7.08,2.16,14.19,2,21.3,.63,4.87,1.51,9.71,2.28,14.56,3.42-4.69,7.76-8.98,10.02-14.18,3.06-7.04,4.16-14.91,6.85-22.14,1.13-3.04,4.21-5.36,6.4-8,.97,3.05,3.11,6.26,2.72,9.12-2.79,20.34-6.15,40.6-9.21,60.9-.79,5.22-1.14,10.51-1.7,15.77,3.25-4.64,6.84-9.07,9.69-13.94,26.8-45.85,25.61-96.43,24.96-146.99-.08-6.04,2.68-12.11,4.12-18.17,1.16,5.92,3.07,11.81,3.33,17.76,1.15,25.79,3.5,51.68,2.27,77.39-1.89,44.03-12.28,86.84-32.88,126.2-.75,2.22-.86,4.67-1.26,7.01,2.4-1.32,5.57-2.05,7.07-4.04,21.57-28.69,38.59-60.54,42.2-95.97,4.84-47.4,4.11-95.36,6.23-143.06,.39-8.69,2.98-17.29,4.55-25.93,3.65,11.88,9.16,23.43,8.21,36.14-.87,79.82,10.16,164.34-33.23,235.91-8.29,14.56-17.06,28.85-25.36,43.41-1.31,2.3-1.31,5.36-1.92,8.06,2.45-1.29,5.33-2.13,7.3-3.95,55.76-54.12,78.08-133.33,79.07-209.25,1.23-48-3.21-95.87-4.89-143.81-.19-4.37,1.38-8.81,2.13-13.21,2.53,3.71,6.65,7.15,7.33,11.17,4.12,24.48,9.36,49,10.6,73.68,1.77,35.33,.97,70.82,.3,106.22-1.24,95.55-39.91,169.68-102.08,240-1.36,1.71-1.69,4.23-2.49,6.37,87.11-56.2,133.92-170.73,130.88-272.63-.8-24.48,2.72-49.11,1.94-73.59-1.09-34.14-4.37-68.21-6.73-102.3-1.01-4.61,.97-9.94,1.36-14.71,2.45,3.14,6.45,5.99,7.11,9.48,5.11,26.89,12.3,53.77,13.62,80.91,2.22,45.67,2.63,91.66-.12,137.28-2.05,33.99-8.82,67.92-16.11,101.31-15.2,73.66-62.95,126.93-112.11,180.56-1.16,1.35-1.27,3.59-1.86,5.42,1.85-.48,4.23-.38,5.48-1.52,21.48-19.66,44.94-37.67,63.75-59.65,66.67-76.98,90.68-168.27,87.52-268.79,4.47-126.88,8.98-198.23-51.19-316.16-1.49-3.45-.83-7.83-1.16-11.79,2.82,2.27,6.31,4.05,8.35,6.88,28.01,38.75,48.23,81,59.89,127.65,10.93,43.72,13.54,87.84,12.82,132.63-.6,37.72,3.21,75.58,1.28,113.18-3.52,119.63-59.96,232.56-146.65,313.92-5.5,5.41-11.82,9.98-17.48,15.23-1.25,1.16-1.34,3.57-1.96,5.4,1.95-.24,4.38,.18,5.78-.83,12.2-8.78,25-16.93,36.15-26.92,96.8-85.46,153.55-211.2,151.29-340.63-.95-39.71-1.23-79.5,.08-119.19,3.01-91.24-17.69-176.54-60.69-256.79-2.73-5.1-3.17-11.43-4.68-17.19,4.12,4.01,8.91,7.53,12.25,12.11,61.06,82.99,85.37,187.34,83.99,289.19-.12,41.03,.51,82.07-.2,123.09-.06,153.11-74.32,295.48-191.66,392.05-1.91,1.8-2.67,4.81-3.96,7.27,2.71-.6,5.98-.42,8.03-1.91,118.99-80.17,195.71-214.44,215.88-355.6,1.95-14.44,2.76-29.12,2.83-43.7,.32-64.35,.09-128.71,.23-193.06,.15-70.71-14.15-138.46-44.47-202.19-17.1-35.99-38.23-70.23-57.22-105.23-.94-3.35-1.49-6.81-2.2-10.23,2.75,1.86,5.95,3.28,8.17,5.63,33.74,35.7,59.85,76.41,80.14,121.08,28.94,65.02,45.53,135.36,48.91,206.31,.94,49.65-.6,99.35,.46,149,5.01,129.75-19.65,213.37-81.06,326.58-61.43,108.29-165.57,191.63-281.56,235.4-28.18,10.35-57.27,18.21-85.92,27.27-2.22,.7-4.26,1.98-6.38,2.99,2.55,.59,5.22,2.01,7.63,1.65,90.79-13.57,172.74-49.13,245.88-103.65,130.38-94.73,222.87-243.18,237.25-405.31,3.89-54.5,5.29-109.18,7.79-163.78-.78-.03-1.57-.07-2.35-.1,2.65-111.76,.13-225.79-49.09-328.71-12.85-27.79-26.64-55.15-39.85-82.78-1.36-2.84-1.64-6.19-2.42-9.31,2.85,2.05,6.4,3.55,8.43,6.22,26.93,35.5,48.04,74.27,65.77,115.14,25.68,59.22,41.57,120.81,45.57,185.12,2.35,37.73,1.94,75.63,2.98,113.45,3.55,62.17,1.88,124.85-3.36,186.82-4.01,39.51-10.73,79.12-20.56,117.59-31.12,112.66-96.49,218.22-185.36,294.24-35.72,29.92-75.21,55.7-114.76,80.57-72.51,45.04-158.43,65.98-242.52,74.99-173.89,18.71-340.31-37.13-471.79-151.87-53.36-46.07-94.48-101.59-132.57-160.46-33.69-52.06-56.01-108.04-68.55-167.94-17.76-80.47-17.21-163.11-17.65-245.1-.35-27.01-.15-54.03-.02-81.04,.42-85.64,17.17-168.12,49.67-247.23,24.65-58.22,58.2-112.68,100.69-159.4,2.84-1.29,6.05-1.77,9.11-2.59-.86,2.73-1.23,5.75-2.65,8.15-17.59,29.95-37.19,58.89-52.51,89.95-16.09,32.61-29.9,66.62-41.52,101.09-20.23,60.02-25.68,122.3-24.21,185.53,1.24,53.33,1.67,106.77-.21,160.06-1.84,51.99,4.75,102.87,16.73,152.88,14.7,61.33,38.3,119.76,73.87,172.05,78.46,123.77,194.89,215.19,337.28,253.48,18.94,5.25,38.45,8.54,57.76,12.37,2.41,.48,5.25-1.22,7.89-1.91-2.45-1.19-4.79-2.92-7.37-3.49-49.49-10.84-96.12-29.46-141.61-51.34-173.26-84.31-297.82-266.68-305.47-460.08-.12-76.34-3.31-152.72-1.71-229.01,3.22-119.94,52.77-237.1,129.95-328.34,5.3-6.41,13.99-10.01,21.11-14.91-25.99,50.37-58.49,97.83-80.82,149.72-14.84,34.57-25.32,72.91-28.21,110.31-5.66,73.34-4.43,147.19-6.5,220.82-3.57,103.29,22.59,205.9,77.55,293.59,29.02,48.13,67.15,88.16,109.37,124.6,4.29,3.7,10.42,5.25,15.7,7.8-2.98-4.58-5.21-9.95-9.05-13.63-41.37-39.51-78.06-82.9-104.61-133.71-28.17-53.9-51.2-109.8-52.63-172.09-.1-133.54-25.38-274.72,36.39-399.2,10.94-22.33,24-43.64,36.46-65.21,1.67-2.9,5.5-4.55,8.32-6.78-.53,3.62-.42,7.49-1.69,10.83-12.43,32.52-27.66,64.24-36.96,97.62-9.38,33.65-14.33,68.75-18.49,103.54-2.29,19.17,1.52,39.01,1.69,58.55,.11,12.21-2.37,24.45-2.05,36.63,1.13,42.56,1.86,85.18,4.79,127.63,9.59,117.88,76.15,234.42,170.92,304.84,19.9,14.17,41.28,26.28,62.18,39.01,3.34,2.04,7.69,2.42,11.58,3.57-2.61-2.91-4.91-6.17-7.87-8.66-31.53-26.55-65.96-50.33-94.2-80-58.17-61.13-94.89-134.07-109.26-218.19-12.68-74.23-7.62-148.87-6.31-223.19,.93-52.77,12.72-104.9,38.18-152.49,3.28-6.13,8.46-11.24,12.76-16.83-1.07,6.81-1.21,13.92-3.34,20.37-16.69,50.58-26.22,102.2-25.37,155.69,.63,39.72,1,79.49-.13,119.2-2.06,84.55,25.56,169.9,77.27,236.34,23.17,26.74,51.37,49.14,77.63,73.16,2.41,2.2,6.49,2.57,9.79,3.79-2-3.06-3.53-6.59-6.06-9.12-33.03-32.98-63.74-68.09-84.95-109.82-20.73-40.78-35.76-84.33-39.29-130.09-3.99-51.68-5.54-103.69-5.06-155.53,.04-36.24,3.97-73.07,16.91-107.55,1.65-2.84,3.82-5.39,5.78-8.06,.83,3.44,2.88,7.1,2.31,10.3-11.57,65.87-8.6,132.41-6.79,198.56,1.94,70.96,22.58,137.27,65.83,194.9,22.57,30.07,48.37,57.18,80.28,77.74,2.73,1.76,6.61,1.73,9.96,2.53-1.83-2.65-3.22-5.8-5.56-7.88-79.8-68.68-127.97-170.91-122.69-276.93,1.71-45.11,3.41-90.3,5.27-135.36,2.47-5.74,4.98-11.47,7.48-17.21,.95,5.58,2.71,11.16,2.73,16.74,1.79,120.92-16.91,225.02,69.31,324.41,9.38,11.07,20.34,20.81,30.82,30.9,1.78,1.72,4.82,2.13,7.27,3.14-1.29-2.45-2.22-5.19-3.93-7.3-32.64-40.2-59.58-83.52-70.36-134.93-3.85-18.37-6.32-37.29-6.85-56.03-1.04-36.68-.58-73.42-.01-110.12,.12-7.55,3.44-15.04,5.28-22.57,1.62,7.26,4.49,14.49,4.63,21.78,.55,27.2-.54,54.44,.35,81.62,1.85,56.94,19.02,108.84,53.54,154.6,3.44,3.37,7.97,5.62,11.82,8.56-1.15-3.89-1.73-8.08-3.56-11.62-15.72-30.32-29.49-61.45-34.37-95.5-2.12-14.81-1.29-30.06-1.56-45.12-.03-1.76,1.48-3.54,2.27-5.32,.98,1.62,2.39,3.12,2.89,4.88,6.17,21.88,11.22,44.14,18.64,65.58,4.46,12.86,12.39,24.56,19.23,36.51,1.13,1.97,4.68,2.56,7.11,3.78-.11-2.39,.18-4.87-.39-7.14-5.85-23.22-12.03-46.36-17.55-69.65-.74-3.13,1.62-6.99,2.55-10.51,2.21,2.49,5.13,4.65,6.52,7.54,6.3,13.16,12.04,26.58,18.34,39.74,.87,1.82,3.74,2.68,5.69,3.98-.05-2,.01-4.01-.18-6-.99-10.24-2.2-20.46-2.96-30.72-.17-2.3,1.17-4.71,1.81-7.07,2.4,1.39,5.06,2.48,7.13,4.26,1.56,1.34,2.07,3.87,3.59,5.3,2.22,2.1,4.93,3.7,7.42,5.52,1.08-2.65,2.8-5.23,3.12-7.97,.82-7.09,.63-14.52,11.1-7.52,1.63,1.09,5.08,.68,7.12-.26Z"/>
        </g>
        <path class="cls-1" d="M814.68,32c14.68,0,29.39,.43,44.12,1.26,10.29-.75,20.59-1.12,30.87-1.12,21.99,0,43.95,1.69,65.81,4.93,66.01,7.34,127.29,32.25,190.69,50.45,6.78,2.9,13.52,5.89,20.21,8.97,7.4,2.49,14.72,5.13,21.72,8.47,281.64,131.67,469.13,420.82,466.03,732.75,.58,227.97,18.61,424.12-99.2,631.43-150.53,276.44-430.94,422.44-713.72,422.44-217.98,0-437.39-86.8-599.7-267.5-123.05-135.39-197.29-310.49-206-493.43-3.75-107.37-4.46-214.96-2.26-322.38,5.29-215.27,105.43-425.53,264.9-569.53,105.87-97.1,234.61-162.14,375.02-193.06,2.46-.63,5.07-.68,7.69-.68,.52,0,1.03,0,1.55,0h.19c.1-.02,.2-.04,.3-.06,43.56-9.03,87.56-12.96,131.8-12.96M814.68,0h0c-47.07,0-92.6,4.38-135.37,13.02-4.09,.05-8.52,.33-13.4,1.5-72.94,16.09-142.86,41.12-207.81,74.4-66.04,33.83-127.1,76.28-181.5,126.16-41.09,37.12-78.82,78.89-112.15,124.16-33.09,44.94-61.87,93.38-85.56,143.98-23.84,50.92-42.53,104.07-55.56,157.99-13.29,55-20.72,110.95-22.08,166.29,0,.04,0,.09,0,.13-2.22,108.27-1.45,217.33,2.27,324.15,0,.14,.01,.27,.02,.4,8.99,188.91,85.05,371.22,214.2,513.35,41.28,45.95,87.25,87.2,136.64,122.6,47.84,34.3,99.45,63.51,153.39,86.85,52.55,22.73,107.79,40.09,164.2,51.59,55.43,11.3,112.36,17.03,169.23,17.03,148.41,0,294.45-38.65,422.34-111.78,65.71-37.57,125.9-83.85,178.9-137.56,55.05-55.77,102.3-119.55,140.45-189.55,26.17-46.09,46.58-92.58,62.39-142.12,14.21-44.52,24.42-90.73,31.21-141.28,12.54-93.3,11.46-186.88,10.31-285.94-.29-25.24-.6-51.34-.66-77.55,.77-79.76-10.4-159.4-33.21-236.72-22.25-75.43-55.24-147.62-98.07-214.59-42.63-66.66-94.27-127-153.49-179.34-60.25-53.25-127.4-97.37-199.6-131.14-8.14-3.88-16.37-6.87-23.54-9.31-6.5-2.98-13.04-5.88-19.48-8.63-1.22-.52-2.47-.96-3.74-1.33-17.23-4.95-34.81-10.57-51.81-16-45.75-14.62-93.04-29.74-143.58-35.43-23.42-3.45-46.94-5.2-69.93-5.2-10.38,0-20.84,.36-31.13,1.06C843.72,.4,828.98,0,814.68,0h0Z"/>
      </g>
      <g>
        <g>
          <path class="cls-1" d="M350.19,1381.6c1.15-1.15,2.81-1.72,5-1.72h19.82c2.18,0,3.85,.58,5,1.72,1.15,1.15,1.72,2.81,1.72,5v83.31c0,2.18-.58,3.85-1.72,5-1.15,1.15-2.81,1.72-5,1.72h-19.82c-2.18,0-3.85-.57-5-1.72-1.15-1.15-1.72-2.81-1.72-5v-83.31c0-2.18,.57-3.85,1.72-5Zm20.41,18.18c3.67-7.05,8.4-12.14,14.19-15.24s12.11-4.66,18.94-4.66h8.57c12.48,0,22.16,1.19,29.02,3.57,6.86,2.38,11.91,6.93,15.16,13.65,3.25,6.72,4.87,16.66,4.87,29.81v42.66c0,2.18-.58,3.85-1.72,5-1.15,1.15-2.81,1.72-5,1.72h-19.82c-2.18,0-3.85-.57-5-1.72-1.15-1.15-1.72-2.81-1.72-5v-42.41c0-5.21-.77-9.29-2.31-12.26-1.54-2.97-3.56-5.01-6.05-6.13-2.49-1.12-5.36-1.68-8.61-1.68h-7.39c-5.21,0-9.42,.66-12.64,1.97-3.22,1.32-5.58,3.44-7.1,6.38s-2.27,6.84-2.27,11.72h-16.63c0-11.2,1.83-20.32,5.5-27.38Z"/>
          <path class="cls-1" d="M494.24,1349.35c1.15-1.15,2.81-1.72,5-1.72h19.82c2.18,0,3.85,.58,5,1.72,1.15,1.15,1.72,2.81,1.72,5v115.56c0,2.18-.57,3.85-1.72,5s-2.81,1.72-5,1.72h-19.82c-2.18,0-3.85-.57-5-1.72-1.15-1.15-1.72-2.81-1.72-5v-115.56c0-2.18,.57-3.85,1.72-5Z"/>
          <path class="cls-1" d="M650.3,1458.24c-3.72,7.28-8.64,12.5-14.74,15.66-6.1,3.16-12.91,4.75-20.41,4.75h-8.57c-13.66,0-24.12-1.22-31.37-3.65-7.25-2.44-12.56-7.14-15.92-14.11s-5.04-17.4-5.04-31.28v-2.69c0-13.88,1.68-24.31,5.04-31.28s8.66-11.67,15.92-14.11c7.25-2.44,17.71-3.65,31.37-3.65h8.57c7.5,0,14.3,1.58,20.41,4.75,6.1,3.16,11.02,8.39,14.74,15.66,3.72,7.28,5.58,16.83,5.58,28.64v2.69c0,11.81-1.86,21.36-5.58,28.64Zm-13.4-44.26c-1.57-3.19-4.09-5.47-7.56-6.84-3.47-1.37-8.2-2.06-14.19-2.06h-7.39c-4.7,0-8.48,.56-11.34,1.68-2.86,1.12-5.05,3.29-6.59,6.51-1.54,3.22-2.31,7.85-2.31,13.9v2.18c0,6.05,.77,10.68,2.31,13.9,1.54,3.22,3.74,5.39,6.59,6.51,2.86,1.12,6.63,1.68,11.34,1.68h7.39c5.99,0,10.72-.68,14.19-2.06,3.47-1.37,5.99-3.65,7.56-6.84,1.57-3.19,2.35-7.59,2.35-13.19v-2.18c0-5.6-.79-9.99-2.35-13.19Zm33.89,93.18c-1.15,1.15-2.81,1.72-5,1.72h-19.82c-2.18,0-3.85-.58-5-1.72-1.15-1.15-1.72-2.81-1.72-5v-115.56c0-2.18,.57-3.85,1.72-5,1.15-1.15,2.81-1.72,5-1.72h19.82c2.18,0,3.85,.58,5,1.72,1.15,1.15,1.72,2.81,1.72,5v115.56c0,2.18-.57,3.85-1.72,5Z"/>
          <path class="cls-1" d="M789.06,1456.73c-3.67,7.05-8.4,12.14-14.19,15.24s-12.11,4.66-18.94,4.66h-8.57c-12.49,0-22.16-1.19-29.02-3.57-6.86-2.38-11.91-6.93-15.16-13.65-3.25-6.72-4.87-16.66-4.87-29.81v-42.66c0-2.18,.57-3.85,1.72-5s2.81-1.72,5-1.72h19.82c2.18,0,3.85,.58,5,1.72,1.15,1.15,1.72,2.81,1.72,5v42.41c0,5.21,.77,9.29,2.31,12.26,1.54,2.97,3.55,5.01,6.05,6.13,2.49,1.12,5.36,1.68,8.61,1.68h7.39c5.21,0,9.42-.66,12.64-1.97,3.22-1.31,5.58-3.44,7.1-6.38s2.27-6.84,2.27-11.72h16.63c0,11.2-1.83,20.32-5.5,27.38Zm20.41,18.18c-1.15,1.15-2.81,1.72-5,1.72h-19.82c-2.18,0-3.85-.57-5-1.72-1.15-1.15-1.72-2.81-1.72-5v-83.31c0-2.18,.57-3.85,1.72-5s2.81-1.72,5-1.72h19.82c2.18,0,3.85,.58,5,1.72,1.15,1.15,1.72,2.81,1.72,5v83.31c0,2.18-.58,3.85-1.72,5Z"/>
          <path class="cls-1" d="M835.66,1395.59c3.41-6.94,8.89-11.63,16.42-14.07,7.53-2.44,18.44-3.65,32.71-3.65h9.74c14.28,0,25.18,1.22,32.71,3.65,7.53,2.44,13,7.13,16.42,14.07,3.41,6.94,5.12,17.38,5.12,31.33v2.69c0,13.94-1.71,24.38-5.12,31.33-3.42,6.94-8.89,11.63-16.42,14.07-7.53,2.44-18.43,3.65-32.71,3.65h-9.74c-14.28,0-25.18-1.22-32.71-3.65-7.53-2.44-13-7.12-16.42-14.07-3.42-6.94-5.12-17.38-5.12-31.33v-2.69c0-13.94,1.71-24.38,5.12-31.33Zm30.53,47.7c1.6,3.19,3.95,5.35,7.05,6.47,3.11,1.12,7.35,1.68,12.72,1.68h7.39c5.38,0,9.62-.56,12.72-1.68,3.11-1.12,5.46-3.28,7.05-6.47s2.39-7.84,2.39-13.94v-2.18c0-6.1-.8-10.75-2.39-13.94s-3.95-5.35-7.05-6.47c-3.11-1.12-7.35-1.68-12.72-1.68h-7.39c-5.38,0-9.62,.56-12.72,1.68-3.11,1.12-5.46,3.28-7.05,6.47s-2.39,7.84-2.39,13.94v2.18c0,6.1,.8,10.75,2.39,13.94Z"/>
          <path class="cls-1" d="M986.23,1473.48c-6.33-2.1-11.06-5.88-14.19-11.34-3.14-5.46-4.7-13.2-4.7-23.22v-84.57c0-2.18,.57-3.85,1.72-5s2.81-1.72,5-1.72h19.82c2.18,0,3.85,.58,5,1.72,1.15,1.15,1.72,2.81,1.72,5v25.53h48.54c2.13,0,3.78,.5,4.96,1.51s1.76,2.3,1.76,3.86v16.46c0,1.57-.59,2.86-1.76,3.86s-2.83,1.51-4.96,1.51h-48.54v28.89c0,3.14,.64,5.71,1.93,7.73,1.29,2.02,2.88,3.47,4.79,4.37,1.9,.9,3.81,1.34,5.71,1.34h2.6c1.46,0,3.08-.41,4.87-1.22,1.79-.81,3.37-2.03,4.75-3.65,1.37-1.62,2.17-3.58,2.39-5.88,.22-2.24,.9-3.86,2.02-4.87,1.12-1.01,2.77-1.51,4.96-1.51h19.9c2.24,0,3.93,.59,5.08,1.76,1.15,1.18,1.61,2.91,1.38,5.21-.9,10.3-3.04,18.16-6.42,23.56-3.39,5.4-8.05,9.06-13.98,10.96-5.94,1.9-13.83,2.86-23.68,2.86h-5.12c-10.69,0-19.21-1.05-25.53-3.15Z"/>
          <path class="cls-1" d="M1098.53,1474.99c-7.34-2.44-12.68-7.12-16.04-14.07-3.36-6.94-5.04-17.38-5.04-31.33v-2.69c0-13.94,1.68-24.38,5.04-31.33,3.36-6.94,8.71-11.63,16.04-14.07,7.33-2.44,17.92-3.65,31.75-3.65h7.22c13.83,0,24.41,1.22,31.75,3.65,7.33,2.44,12.68,7.13,16.04,14.07,3.36,6.94,5.04,17.38,5.04,31.33v6.89c-.06,2.13-.67,3.75-1.85,4.87-1.18,1.12-2.86,1.68-5.04,1.68h-71.89c.78,3.86,2.03,6.83,3.74,8.9,1.71,2.07,3.85,3.46,6.43,4.16,2.57,.7,5.85,1.05,9.83,1.05h4.7c3.36,0,6.19-.24,8.48-.71,2.29-.47,4.25-1.36,5.88-2.65,1.18-.95,2.21-1.64,3.11-2.06,.89-.42,1.96-.63,3.19-.63h24.44c2.41,0,4.17,.67,5.29,2.02,1.12,1.34,1.31,3.16,.59,5.46-1.96,6.21-4.98,10.96-9.07,14.24-4.09,3.28-9.34,5.52-15.75,6.72-6.41,1.2-14.71,1.81-24.9,1.81h-7.22c-13.83,0-24.41-1.22-31.75-3.65Zm53.96-67.73c-1.71-2.07-3.85-3.46-6.42-4.16-2.58-.7-5.85-1.05-9.83-1.05h-4.7c-3.98,0-7.25,.35-9.83,1.05-2.58,.7-4.72,2.09-6.43,4.16-1.71,2.07-2.95,5.04-3.74,8.9h44.68c-.79-3.86-2.03-6.83-3.74-8.9Z"/>
          <path class="cls-1" d="M1238,1476.46c-6.86-1.46-12.09-3.86-15.71-7.22s-5.87-7.98-6.76-13.86c-.34-2.18,.11-3.89,1.34-5.12,1.23-1.23,2.94-1.85,5.12-1.85h18.22c2.18,0,3.83,.22,4.96,.67,1.12,.45,1.79,1.23,2.02,2.35,.11,.62,.88,1.15,2.31,1.6,1.43,.45,3.85,.8,7.26,1.05,3.41,.25,8.09,.38,14.03,.38h9.91c7.33,0,12.82-.21,16.46-.63,3.64-.42,6.06-1.06,7.26-1.93,1.2-.87,1.81-2.08,1.81-3.65v-1.6c0-1.57-.55-2.77-1.64-3.61s-3.16-1.47-6.21-1.89c-3.05-.42-7.66-.66-13.82-.71l-16.96-.25c-12.77-.22-22.93-1.36-30.49-3.4-7.56-2.04-13.05-5.22-16.46-9.53-3.42-4.31-5.12-10.05-5.12-17.22v-2.44c0-7.17,1.71-12.9,5.12-17.22,3.42-4.31,8.92-7.47,16.5-9.49,7.59-2.02,17.73-3.02,30.44-3.02h20.66c11.2,0,20.23,.73,27.08,2.18,6.86,1.46,12.09,3.86,15.71,7.22s5.86,7.98,6.76,13.86c.34,2.18-.11,3.89-1.34,5.12s-2.94,1.85-5.12,1.85h-18.22c-2.18,0-3.84-.22-4.96-.67-1.12-.45-1.79-1.23-2.02-2.35-.11-.62-.88-1.15-2.31-1.6-1.43-.45-3.85-.8-7.26-1.05-3.42-.25-8.09-.38-14.03-.38h-9.91c-6.44,0-11.51,.21-15.2,.63s-6.34,1.08-7.94,1.97c-1.6,.9-2.39,2.1-2.39,3.61v1.6c0,1.57,.55,2.77,1.64,3.61s3.16,1.47,6.21,1.89c3.05,.42,7.66,.66,13.82,.71l16.96,.25c12.77,.22,22.93,1.36,30.49,3.4,7.56,2.04,13.04,5.22,16.46,9.53,3.41,4.31,5.12,10.05,5.12,17.22v2.44c0,7.17-1.71,12.91-5.12,17.22-3.42,4.31-8.92,7.47-16.5,9.49-7.59,2.02-17.74,3.02-30.44,3.02h-20.66c-11.2,0-20.23-.73-27.08-2.18Z"/>
        </g>
        <g>
          <g>
            <path class="cls-1" d="M843.26,401.44c178.94,0,324,145.06,324,324v98.51c101.99,0,184.67,80.7,184.67,180.25,0,99.55-134.68,172.25-236.67,172.25H519.26c-101.99,0-184.67-72.7-184.67-172.25s82.68-180.25,184.67-180.25v-98.51c0-178.94,145.06-324,324-324Z"/>
            <g>
              <path class="cls-6" d="M1167.13,860.99v-38.05h0v-98.51c0-178.94-145.06-324-324-324s-324,145.06-324,324v98.51h0v64h0v116.75h64v-279.25c0-35.13,6.87-69.17,20.41-101.18,13.09-30.95,31.85-58.77,55.75-82.66,23.9-23.9,51.71-42.65,82.66-55.75,32.01-13.54,66.06-20.41,101.18-20.41s69.17,6.87,101.18,20.41c30.95,13.09,58.76,31.85,82.66,55.75,23.9,23.9,42.65,51.71,55.75,82.66,13.54,32.01,20.41,66.06,20.41,101.18v162.51h.13v116.75h64v-142.66s-.13-.04-.13-.04Z"/>
              <path class="cls-6" d="M1351.79,1003.68c0-.16,0-.33,0-.49,0-87.52-63.91-160.46-148.67-176.81v65.85s.09,.03,.13,.04v111.42h84.53c-.28,63.87-54.3,115.75-120.66,115.75H519.13c-66.36,0-120.38-51.88-120.66-115.75h84.66v-177.31c-84.75,16.35-148.67,89.29-148.67,176.81,0,99.55,82.68,180.25,184.67,180.25h648c101.82,0,184.39-80.43,184.66-179.75h0Z"/>
            </g>
          </g>
          <g>
            <g>
              <line class="cls-3" x1="619.27" y1="762.94" x2="778.55" y2="845.59"/>
              <g>
                <path class="cls-2" d="M651.15,1073.44c-5.49,0-10.3-3.71-11.69-9.01l-28.11-106.82c-1.32-5,.76-8.7,2.12-10.46,1.36-1.76,4.4-4.71,9.58-4.71h151.74c5.17,0,8.22,2.95,9.58,4.71,1.36,1.76,3.43,5.46,2.12,10.46l-28.11,106.82c-1.4,5.31-6.2,9.01-11.69,9.01h-95.52Z"/>
                <path class="cls-6" d="M764.52,962.44l-23.95,91h-83.33l-23.95-91h131.22m10.26-40h-151.74c-21.04,0-36.39,19.91-31.03,40.26l28.11,106.82c3.71,14.1,16.46,23.92,31.03,23.92h95.52c14.58,0,27.32-9.83,31.03-23.92l28.11-106.82c5.35-20.35-9.99-40.26-31.03-40.26h0Z"/>
              </g>
            </g>
            <g>
              <path class="cls-4" d="M1057.26,845.59c0-38.61-31.3-69.92-69.92-69.92s-69.92,31.3-69.92,69.92"/>
              <g>
                <path class="cls-2" d="M939.58,1073.44c-5.49,0-10.3-3.71-11.69-9.01l-28.11-106.82c-1.32-5,.76-8.7,2.12-10.46,1.36-1.76,4.4-4.71,9.58-4.71h151.74c5.17,0,8.22,2.95,9.58,4.71,1.36,1.76,3.43,5.46,2.12,10.46l-28.11,106.82c-1.4,5.31-6.2,9.01-11.69,9.01h-95.52Z"/>
                <path class="cls-6" d="M1052.96,962.44l-23.95,91h-83.33l-23.95-91h131.22m10.26-40h-151.74c-21.04,0-36.39,19.91-31.03,40.26l28.11,106.82c3.71,14.1,16.46,23.92,31.03,23.92h95.52c14.58,0,27.32-9.83,31.03-23.92l28.11-106.82c5.35-20.35-9.99-40.26-31.03-40.26h0Z"/>
              </g>
            </g>
          </g>
        </g>
      </g>
    </g>
  </g>
</svg>